<svg id="svg" xmlns="http://www.w3.org/2000/svg" xmlns:xlink="http://www.w3.org/1999/xlink" width="400" height="400" viewBox="0, 0, 400,400"><g id="svgg">
  <style>
		path {
			fill: #000000;
		}
    
		@media ( prefers-color-scheme: dark ) {
			path {
				fill: #ffffff;
			}
		}
	</style>
  <path id="path0" d="M164.744 39.090 C 159.836 43.991,155.321 48.000,154.710 48.000 C 153.194 48.000,152.000 49.316,152.000 50.985 C 152.000 51.747,151.475 52.837,150.833 53.407 C 150.192 53.976,148.793 55.446,147.724 56.671 C 145.799 58.881,145.778 58.887,145.223 57.387 C 144.915 56.555,144.139 55.737,143.498 55.570 C 142.543 55.321,142.375 54.665,142.567 51.926 C 143.777 34.632,107.552 54.538,91.021 80.252 C 85.913 88.197,81.503 101.098,83.233 103.033 C 83.905 103.785,82.981 119.425,81.954 124.667 C 78.223 143.725,82.735 153.577,98.189 160.113 C 104.572 162.814,104.473 162.700,105.435 168.423 C 107.479 180.585,117.433 185.605,139.590 185.646 L 150.846 185.667 152.318 190.667 C 153.128 193.417,154.798 197.682,156.028 200.145 C 158.743 205.581,159.648 204.880,147.667 206.617 C 142.167 207.415,135.117 208.664,132.000 209.394 C 125.391 210.942,119.750 210.619,117.807 208.583 C 113.755 204.336,110.435 209.481,113.237 215.667 C 115.816 221.360,115.755 221.641,111.494 223.687 C 96.108 231.072,92.600 245.038,103.292 256.333 C 105.027 258.167,107.389 260.867,108.541 262.333 C 109.694 263.800,112.639 266.200,115.088 267.667 L 119.539 270.333 121.414 278.667 C 123.081 286.077,123.672 289.915,123.167 290.042 C 123.075 290.065,110.769 290.333,95.820 290.638 C 76.015 291.042,68.372 291.414,67.653 292.011 C 66.052 293.340,66.425 296.478,68.333 297.728 C 69.797 298.687,70.000 299.296,70.000 302.718 L 70.000 306.615 67.500 307.272 C 66.125 307.633,63.600 308.274,61.888 308.697 C 58.025 309.649,55.818 311.834,56.116 314.410 C 56.437 317.186,59.217 318.869,73.000 324.627 C 74.106 325.089,73.367 325.621,68.667 327.748 C 57.137 332.966,56.353 333.467,56.130 335.756 C 55.512 342.114,63.923 342.152,100.889 335.958 L 124.779 331.955 135.889 332.379 C 146.885 332.798,147.308 332.761,176.667 328.768 C 207.656 324.554,213.971 324.103,236.422 324.500 C 244.959 324.651,245.875 324.783,246.168 325.903 C 246.465 327.041,245.840 327.174,238.329 327.576 C 199.510 329.651,158.616 335.608,130.667 343.258 C 126.817 344.312,119.467 346.298,114.333 347.671 C 97.270 352.237,86.000 358.718,86.000 363.964 C 86.000 368.473,89.615 368.448,94.840 363.903 C 108.829 351.736,177.136 338.015,243.667 334.009 C 276.478 332.032,290.000 329.220,290.000 324.373 C 290.000 322.532,288.410 320.667,286.841 320.667 C 286.256 320.667,285.920 320.525,286.093 320.351 C 286.267 320.178,295.092 319.283,305.704 318.362 C 333.243 315.974,355.830 311.807,356.942 308.910 C 357.911 306.385,356.332 303.567,353.333 302.471 C 352.783 302.270,353.567 302.082,355.074 302.053 C 358.643 301.984,371.424 299.389,372.500 298.514 C 376.358 295.377,372.411 292.397,363.000 291.340 C 343.712 289.175,324.146 286.000,330.089 286.000 C 332.222 286.000,333.333 284.841,333.333 282.615 C 333.333 279.027,333.383 279.034,303.065 278.576 C 279.810 278.226,251.000 276.437,251.000 275.345 C 251.000 275.339,251.423 266.109,251.941 254.834 C 253.129 228.951,251.733 207.298,248.310 198.487 C 245.959 192.436,249.614 191.112,270.000 190.629 C 286.572 190.237,290.262 189.614,295.000 186.404 C 300.728 182.523,300.485 174.551,294.512 170.367 C 293.831 169.890,291.174 167.512,288.608 165.084 C 277.509 154.580,257.189 144.000,248.112 144.000 C 247.561 144.000,245.187 142.943,242.835 141.650 C 238.536 139.287,232.770 137.487,224.577 135.949 L 220.154 135.119 219.833 124.726 C 219.417 111.264,218.026 106.632,210.805 94.667 C 203.291 82.215,197.967 76.295,187.817 69.107 C 185.186 67.244,184.089 66.063,184.353 65.376 C 185.714 61.828,188.659 49.933,188.662 47.967 C 188.671 42.995,184.360 42.335,181.485 46.868 L 179.667 49.735 179.667 40.970 C 179.667 26.334,177.759 26.094,164.744 39.090 M172.076 50.333 C 170.400 59.865,169.906 61.021,166.860 62.532 C 162.817 64.539,160.604 63.574,163.662 61.138 C 166.353 58.995,166.832 55.543,164.945 51.893 L 163.890 49.853 168.445 45.670 C 173.762 40.788,173.755 40.780,172.076 50.333 M159.059 75.000 C 158.515 75.826,157.176 76.460,155.539 76.667 C 152.278 77.078,150.374 78.666,143.809 86.452 C 139.211 91.904,133.347 97.569,132.832 97.055 C 132.565 96.787,137.065 83.932,139.390 78.322 L 141.328 73.644 150.633 73.655 C 159.784 73.666,159.923 73.689,159.059 75.000 M171.649 75.966 C 172.208 77.048,173.109 79.633,173.651 81.712 C 175.181 87.587,179.048 89.531,181.074 85.444 C 181.498 84.588,182.180 83.553,182.589 83.144 C 182.999 82.735,183.333 81.835,183.333 81.144 C 183.333 80.454,183.558 79.991,183.833 80.116 C 184.108 80.241,186.200 81.316,188.481 82.505 C 190.762 83.694,193.312 84.700,194.148 84.740 C 194.983 84.781,194.105 85.196,192.196 85.662 C 187.767 86.744,182.000 90.869,182.000 92.954 C 182.000 93.783,181.501 95.463,180.890 96.686 C 174.768 108.958,187.643 114.547,196.202 103.333 C 198.728 100.023,199.032 99.213,199.333 95.000 L 199.667 90.333 203.435 96.333 C 212.950 111.484,214.523 119.062,212.317 139.103 C 210.968 151.364,209.084 155.634,203.378 159.362 C 202.070 160.216,199.650 161.993,198.000 163.311 C 191.185 168.751,187.853 170.052,174.958 172.307 C 154.414 175.900,124.917 176.485,123.289 173.333 C 123.005 172.783,122.187 171.058,121.470 169.500 L 120.167 166.667 124.046 166.667 C 127.298 166.667,128.092 166.427,128.962 165.185 C 132.358 160.336,127.309 155.371,118.952 155.341 C 117.826 155.337,115.501 154.855,113.785 154.271 L 110.667 153.208 110.667 147.730 C 110.667 143.870,111.255 139.902,112.658 134.293 C 114.803 125.720,115.130 122.064,113.867 120.800 C 112.823 119.756,109.827 119.773,108.771 120.829 C 107.956 121.644,108.078 115.663,109.040 107.667 C 109.648 102.613,113.475 90.542,114.230 91.297 C 115.337 92.404,118.176 92.093,120.000 90.667 C 120.917 89.950,122.400 89.356,123.297 89.348 C 124.193 89.340,125.815 88.508,126.900 87.500 C 128.530 85.985,128.788 85.898,128.389 87.000 C 125.149 95.937,123.860 104.260,125.467 105.867 C 128.820 109.220,141.212 101.701,148.343 91.986 C 150.553 88.976,151.025 88.667,153.415 88.667 C 156.258 88.667,159.925 85.545,166.537 77.495 C 169.865 73.442,170.280 73.318,171.649 75.966 M96.224 91.389 C 93.223 98.861,91.333 108.942,91.333 117.475 C 91.333 119.230,91.033 120.667,90.667 120.667 C 88.542 120.667,90.570 98.515,93.056 94.581 C 94.068 92.978,95.754 89.942,96.800 87.833 C 99.702 81.989,99.502 83.224,96.224 91.389 M142.333 110.648 C 140.500 111.720,138.388 112.882,137.639 113.229 C 129.645 116.942,138.688 131.632,148.191 130.371 C 155.581 129.391,158.000 126.533,158.000 118.785 C 158.000 109.037,151.160 105.485,142.333 110.648 M178.800 111.467 C 177.446 112.821,177.841 115.873,179.500 116.876 C 180.325 117.374,182.650 118.751,184.667 119.936 C 186.683 121.121,189.636 123.238,191.229 124.641 L 194.124 127.192 191.562 130.048 C 190.153 131.619,188.337 133.574,187.527 134.394 C 184.355 137.605,184.844 141.503,188.465 141.868 C 190.215 142.044,191.052 141.416,195.208 136.805 C 204.277 126.745,203.563 120.754,192.651 115.365 C 189.719 113.918,186.656 112.268,185.845 111.700 C 184.094 110.473,179.931 110.336,178.800 111.467 M96.994 143.910 L 97.486 149.486 95.243 147.926 C 85.731 141.312,84.990 136.572,93.030 133.774 L 95.667 132.857 96.085 135.595 C 96.315 137.101,96.724 140.843,96.994 143.910 M225.951 145.614 C 226.528 146.132,228.500 146.864,230.333 147.241 C 236.672 148.546,242.220 150.080,244.073 151.038 C 245.097 151.567,246.627 152.000,247.473 152.000 C 248.320 152.000,249.387 152.600,249.845 153.333 C 250.338 154.123,251.423 154.679,252.506 154.696 C 253.511 154.712,255.383 155.135,256.667 155.635 C 257.950 156.136,260.800 157.231,263.000 158.068 C 268.093 160.008,274.832 164.430,278.608 168.311 C 280.226 169.973,281.801 171.333,282.108 171.333 C 282.415 171.333,282.667 171.916,282.667 172.627 C 282.667 173.339,282.963 174.104,283.325 174.328 C 283.687 174.552,284.933 176.116,286.095 177.805 L 288.207 180.875 285.604 180.446 C 264.999 177.057,235.678 179.032,227.000 184.393 C 224.762 185.776,216.359 188.000,213.373 188.000 C 211.428 188.000,208.889 188.826,205.172 190.667 C 202.211 192.133,199.206 193.333,198.495 193.333 C 197.783 193.333,195.506 194.374,193.434 195.646 C 188.458 198.701,173.411 204.000,169.713 204.000 L 166.847 204.000 165.423 199.786 C 164.640 197.469,164.000 194.932,164.000 194.150 C 164.000 193.368,163.308 190.822,162.463 188.493 L 160.926 184.259 165.630 183.498 C 188.813 179.744,210.893 168.558,215.042 158.465 C 216.068 155.971,217.153 153.778,217.453 153.592 C 217.754 153.407,218.003 152.297,218.007 151.127 C 218.011 149.957,218.206 147.840,218.440 146.423 L 218.866 143.846 221.884 144.260 C 223.544 144.487,225.374 145.097,225.951 145.614 M189.333 151.381 C 186.583 152.064,182.233 152.824,179.667 153.069 C 174.292 153.583,173.333 154.127,173.333 156.667 C 173.333 160.589,179.752 161.038,192.333 157.995 C 199.196 156.335,200.000 155.851,200.000 153.385 C 200.000 149.699,197.780 149.282,189.333 151.381 M117.387 166.729 C 116.319 167.156,115.542 167.142,115.087 166.687 C 114.615 166.215,115.121 166.013,116.700 166.042 C 118.861 166.082,118.903 166.123,117.387 166.729 M243.262 207.500 C 244.869 215.646,245.293 219.565,245.659 229.667 C 246.028 239.881,244.682 274.207,243.880 275.009 C 243.669 275.220,235.135 275.970,224.915 276.675 C 214.695 277.380,205.067 278.078,203.518 278.228 C 201.244 278.447,200.630 278.267,200.321 277.295 C 200.111 276.633,198.678 275.670,197.136 275.157 C 195.344 274.560,194.248 273.762,194.098 272.945 C 193.968 272.242,193.423 271.171,192.886 270.564 C 192.349 269.958,191.503 267.517,191.005 265.139 C 189.819 259.470,186.411 251.364,183.881 248.195 C 180.487 243.943,177.560 237.333,175.755 229.843 C 174.809 225.917,173.303 220.971,172.409 218.852 C 171.515 216.733,170.877 214.905,170.992 214.789 C 171.758 214.013,181.131 212.766,189.000 212.394 C 194.133 212.152,200.433 211.512,203.000 210.973 C 205.567 210.434,212.167 209.238,217.667 208.316 C 223.167 207.393,229.917 206.076,232.667 205.389 C 241.510 203.178,242.447 203.364,243.262 207.500 M164.972 225.000 C 166.702 230.133,168.664 235.279,169.332 236.435 C 169.999 237.591,170.893 240.291,171.318 242.435 C 172.570 248.753,175.168 258.035,176.888 262.333 C 177.768 264.533,178.684 267.158,178.923 268.167 L 179.359 270.000 171.190 270.000 C 163.488 270.000,151.436 268.502,136.667 265.709 C 131.043 264.645,125.339 262.346,125.321 261.135 C 125.249 256.311,123.922 232.597,123.653 231.329 C 123.348 229.888,123.692 229.462,126.149 228.242 C 132.592 225.041,135.724 223.893,138.942 223.552 C 141.341 223.298,142.723 222.746,143.667 221.668 C 145.084 220.047,160.659 214.380,161.413 215.211 C 161.640 215.462,163.241 219.867,164.972 225.000 M126.000 218.333 C 122.907 219.524,122.216 219.524,121.759 218.333 C 121.447 217.520,122.023 217.343,124.854 217.384 L 128.333 217.435 126.000 218.333 M117.411 235.833 C 117.454 237.208,117.679 242.729,117.911 248.102 C 118.394 259.272,118.804 258.837,112.333 254.020 C 104.320 248.055,104.213 240.038,112.084 235.482 C 116.782 232.763,117.317 232.798,117.411 235.833 M139.051 276.312 C 141.956 276.558,146.883 277.172,150.000 277.677 C 153.117 278.182,161.879 278.739,169.471 278.915 C 177.224 279.094,183.799 279.539,184.471 279.930 C 185.129 280.313,185.481 280.635,185.255 280.646 C 184.433 280.687,145.549 288.623,141.344 289.608 C 138.564 290.260,136.791 290.391,136.377 289.977 C 136.023 289.623,134.443 289.333,132.867 289.333 C 130.140 289.333,130.000 289.238,130.000 287.377 C 130.000 285.394,128.433 277.233,127.673 275.255 C 127.299 274.283,127.580 274.259,130.513 275.020 C 132.304 275.485,136.145 276.066,139.051 276.312 M275.000 285.962 C 276.467 286.265,277.517 286.559,277.333 286.616 C 277.150 286.672,271.300 287.417,264.333 288.271 C 250.998 289.905,250.698 289.874,250.677 286.833 C 250.666 285.213,268.322 284.581,275.000 285.962 M244.000 288.636 C 244.000 290.953,245.052 290.691,227.667 292.716 C 221.067 293.485,208.017 295.300,198.667 296.750 C 182.931 299.189,163.988 301.543,163.557 301.113 C 162.554 300.109,212.104 289.803,224.667 288.403 C 244.380 286.205,244.000 286.200,244.000 288.636 M183.000 289.019 C 182.633 289.155,173.183 291.388,162.000 293.981 C 150.817 296.573,139.546 299.439,136.954 300.347 C 134.363 301.256,132.038 302.000,131.788 302.000 C 130.780 302.000,131.415 299.399,132.500 299.083 C 133.983 298.650,164.940 291.850,173.333 290.114 C 178.803 288.982,184.989 288.282,183.000 289.019 M316.602 294.335 C 321.420 296.090,325.183 297.708,324.963 297.930 C 323.572 299.332,295.029 302.528,294.219 301.372 C 292.963 299.580,285.484 298.828,253.333 297.260 C 250.229 297.109,253.826 296.547,276.667 293.617 C 303.928 290.120,305.090 290.141,316.602 294.335 M343.000 296.000 C 343.528 296.854,340.656 296.854,339.333 296.000 C 338.572 295.508,338.842 295.351,340.461 295.344 C 341.631 295.338,342.773 295.633,343.000 296.000 M104.333 297.686 C 103.173 298.118,77.520 304.667,76.991 304.667 C 76.457 304.667,77.056 298.987,77.701 297.945 C 77.912 297.604,84.033 297.357,91.539 297.386 C 98.943 297.415,104.700 297.550,104.333 297.686 M124.667 302.619 C 124.667 304.645,123.294 305.418,115.333 307.874 C 112.571 308.726,99.867 310.023,95.051 309.945 L 91.667 309.890 97.000 308.190 C 101.719 306.685,122.866 300.874,124.167 300.724 C 124.442 300.693,124.667 301.545,124.667 302.619 M341.093 304.810 L 343.596 306.287 333.632 308.097 C 322.543 310.111,254.811 316.274,257.667 315.010 C 258.269 314.743,330.439 304.419,336.000 303.805 C 337.283 303.663,338.391 303.499,338.462 303.440 C 338.533 303.381,339.717 303.998,341.093 304.810 M246.000 305.667 C 246.000 306.583,245.706 307.333,245.346 307.333 C 244.287 307.333,221.581 310.446,193.667 314.418 L 167.667 318.118 151.423 317.759 C 142.488 317.562,135.100 317.310,135.005 317.200 C 132.100 313.838,133.380 313.440,159.333 309.633 C 190.715 305.030,200.937 304.167,225.167 304.077 L 246.000 304.000 246.000 305.667 M261.333 304.582 L 265.000 305.033 258.833 305.700 C 253.121 306.318,252.667 306.280,252.667 305.184 C 252.667 303.875,254.525 303.746,261.333 304.582 M127.333 316.667 C 127.333 317.033,126.058 317.303,124.500 317.267 C 122.093 317.210,121.917 317.120,123.333 316.667 C 125.732 315.898,127.333 315.898,127.333 316.667 M78.740 318.327 C 81.270 319.159,81.350 319.237,79.333 318.900 C 78.050 318.685,76.100 318.098,75.000 317.595 C 72.758 316.570,74.339 316.879,78.740 318.327 M261.944 325.576 C 261.187 326.236,252.667 326.643,252.667 326.019 C 252.667 325.613,254.617 325.333,257.444 325.333 C 260.072 325.333,262.097 325.442,261.944 325.576 M89.515 328.667 C 90.448 329.400,91.613 330.032,92.105 330.071 C 92.597 330.110,88.963 330.848,84.029 331.711 C 79.094 332.573,74.990 333.212,74.907 333.129 C 74.731 332.953,86.803 327.373,87.410 327.349 C 87.636 327.341,88.583 327.933,89.515 328.667 " stroke="none" fill-rule="evenodd"></path></g></svg>